<svg width="64" height="64" viewBox="0 0 64 64" fill="none" xmlns="http://www.w3.org/2000/svg">
<g filter="url(#filter0_d_430_1814)">
<path fill-rule="evenodd" clip-rule="evenodd" d="M32 52C43.0457 52 52 43.0457 52 32C52 20.9543 43.0457 12 32 12C20.9543 12 12 20.9543 12 32C12 43.0457 20.9543 52 32 52Z" fill="url(#paint0_linear_430_1814)"/>
</g>
<path fill-rule="evenodd" clip-rule="evenodd" d="M27.6567 41.4999C26.9446 41.4999 27.0656 41.231 26.82 40.553L24.726 33.6614L40.8447 24.099" fill="#C8DAEA"/>
<path fill-rule="evenodd" clip-rule="evenodd" d="M27.6567 41.4999C28.2062 41.4999 28.449 41.2486 28.7557 40.9504L31.6864 38.1007L28.0307 35.8962" fill="#A9C9DD"/>
<path fill-rule="evenodd" clip-rule="evenodd" d="M28.0304 35.8967L36.8883 42.4411C37.8991 42.9988 38.6287 42.7101 38.8805 41.5026L42.4861 24.5115C42.8553 23.0315 41.9219 22.3602 40.9549 22.7992L19.7827 30.9632C18.3375 31.5428 18.3459 32.3491 19.5192 32.7084L24.9525 34.4042L37.5311 26.4685C38.125 26.1084 38.6699 26.302 38.2226 26.699" fill="url(#paint1_linear_430_1814)"/>
<defs>
<filter id="filter0_d_430_1814" x="0" y="0" width="64" height="64" filterUnits="userSpaceOnUse" color-interpolation-filters="sRGB">
<feFlood flood-opacity="0" result="BackgroundImageFix"/>
<feColorMatrix in="SourceAlpha" type="matrix" values="0 0 0 0 0 0 0 0 0 0 0 0 0 0 0 0 0 0 127 0" result="hardAlpha"/>
<feOffset/>
<feGaussianBlur stdDeviation="6"/>
<feComposite in2="hardAlpha" operator="out"/>
<feColorMatrix type="matrix" values="0 0 0 0 0 0 0 0 0 0 0 0 0 0 0 0 0 0 0.06 0"/>
<feBlend mode="normal" in2="BackgroundImageFix" result="effect1_dropShadow_430_1814"/>
<feBlend mode="normal" in="SourceGraphic" in2="effect1_dropShadow_430_1814" result="shape"/>
</filter>
<linearGradient id="paint0_linear_430_1814" x1="27.002" y1="13.668" x2="17.002" y2="37" gradientUnits="userSpaceOnUse">
<stop stop-color="#37AEE2"/>
<stop offset="1" stop-color="#1E96C8"/>
</linearGradient>
<linearGradient id="paint1_linear_430_1814" x1="28.9349" y1="32.7758" x2="31.2834" y2="40.3726" gradientUnits="userSpaceOnUse">
<stop stop-color="#EFF7FC"/>
<stop offset="1" stop-color="white"/>
</linearGradient>
</defs>
</svg>
